<mxfile host="Electron" modified="2024-02-23T22:51:33.923Z" agent="Mozilla/5.0 (Windows NT 10.0; Win64; x64) AppleWebKit/537.36 (KHTML, like Gecko) draw.io/23.1.5 Chrome/120.0.6099.109 Electron/28.1.0 Safari/537.36" etag="GnqBZ2UhbmUu7U2_wYVw" version="23.1.5" type="device">
  <diagram id="C5RBs43oDa-KdzZeNtuy" name="Page-1">
    <mxGraphModel dx="846" dy="659" grid="1" gridSize="10" guides="1" tooltips="1" connect="1" arrows="1" fold="1" page="1" pageScale="1" pageWidth="2000" pageHeight="2000" math="0" shadow="0">
      <root>
        <mxCell id="WIyWlLk6GJQsqaUBKTNV-0" />
        <mxCell id="WIyWlLk6GJQsqaUBKTNV-1" parent="WIyWlLk6GJQsqaUBKTNV-0" />
        <mxCell id="WIyWlLk6GJQsqaUBKTNV-2" value="" style="rounded=0;html=1;jettySize=auto;orthogonalLoop=1;fontSize=11;endArrow=block;endFill=0;endSize=8;strokeWidth=1;shadow=0;labelBackgroundColor=none;edgeStyle=orthogonalEdgeStyle;" parent="WIyWlLk6GJQsqaUBKTNV-1" source="WIyWlLk6GJQsqaUBKTNV-3" target="WIyWlLk6GJQsqaUBKTNV-6" edge="1">
          <mxGeometry relative="1" as="geometry" />
        </mxCell>
        <mxCell id="WIyWlLk6GJQsqaUBKTNV-3" value="&lt;b&gt;GameManager.Start&lt;/b&gt;&lt;br&gt;- GameManager.CheckStartScene&lt;br&gt;&amp;nbsp; GameManager.AutoRunStartScene=false&lt;br&gt;&amp;nbsp; ならCheckStartSceneは読み込まれず&lt;br&gt;&amp;nbsp; アイドル状態で停止&lt;br&gt;&amp;nbsp; AutoRunStartScene=falseはdebug用" style="rounded=1;whiteSpace=wrap;html=1;fontSize=12;glass=0;strokeWidth=1;shadow=0;align=left;" parent="WIyWlLk6GJQsqaUBKTNV-1" vertex="1">
          <mxGeometry x="40" y="70" width="240" height="120" as="geometry" />
        </mxCell>
        <mxCell id="WIyWlLk6GJQsqaUBKTNV-5" value="" style="edgeStyle=orthogonalEdgeStyle;rounded=0;html=1;jettySize=auto;orthogonalLoop=1;fontSize=11;endArrow=block;endFill=0;endSize=8;strokeWidth=1;shadow=0;labelBackgroundColor=none;entryX=0;entryY=0.5;entryDx=0;entryDy=0;" parent="WIyWlLk6GJQsqaUBKTNV-1" source="WIyWlLk6GJQsqaUBKTNV-6" target="5-Z6bzct20eR7TX8dzta-2" edge="1">
          <mxGeometry x="-0.0231" relative="1" as="geometry">
            <mxPoint as="offset" />
          </mxGeometry>
        </mxCell>
        <mxCell id="5-Z6bzct20eR7TX8dzta-5" value="Yes" style="edgeLabel;html=1;align=center;verticalAlign=middle;resizable=0;points=[];" parent="WIyWlLk6GJQsqaUBKTNV-5" vertex="1" connectable="0">
          <mxGeometry x="-0.1459" y="-2" relative="1" as="geometry">
            <mxPoint as="offset" />
          </mxGeometry>
        </mxCell>
        <mxCell id="WIyWlLk6GJQsqaUBKTNV-6" value="MainMapScene&lt;br&gt;にMainMapControllerが存在するか" style="rhombus;whiteSpace=wrap;html=1;shadow=0;fontFamily=Helvetica;fontSize=12;align=center;strokeWidth=1;spacing=6;spacingTop=-4;" parent="WIyWlLk6GJQsqaUBKTNV-1" vertex="1">
          <mxGeometry x="62.5" y="250" width="195" height="100" as="geometry" />
        </mxCell>
        <mxCell id="DUIZxrPElOyRMzCoWgxO-0" value="Load順" style="text;html=1;strokeColor=none;fillColor=none;align=center;verticalAlign=middle;whiteSpace=wrap;rounded=0;fontStyle=1;fontSize=19;" parent="WIyWlLk6GJQsqaUBKTNV-1" vertex="1">
          <mxGeometry width="510" height="30" as="geometry" />
        </mxCell>
        <mxCell id="kAOb2uxhxlqk5gWldgAm-30" value="" style="edgeStyle=orthogonalEdgeStyle;rounded=0;orthogonalLoop=1;jettySize=auto;html=1;exitX=0.5;exitY=1;exitDx=0;exitDy=0;" parent="WIyWlLk6GJQsqaUBKTNV-1" source="WIyWlLk6GJQsqaUBKTNV-6" target="kAOb2uxhxlqk5gWldgAm-29" edge="1">
          <mxGeometry relative="1" as="geometry">
            <mxPoint x="160" y="360" as="sourcePoint" />
          </mxGeometry>
        </mxCell>
        <mxCell id="kAOb2uxhxlqk5gWldgAm-31" value="MainMapSceneからのStartCanvasに&lt;br&gt;ゲーム開始時のTabletの表示依頼" style="edgeLabel;html=1;align=center;verticalAlign=middle;resizable=0;points=[];" parent="kAOb2uxhxlqk5gWldgAm-30" vertex="1" connectable="0">
          <mxGeometry x="-0.3875" y="2" relative="1" as="geometry">
            <mxPoint x="-2" y="16" as="offset" />
          </mxGeometry>
        </mxCell>
        <mxCell id="kAOb2uxhxlqk5gWldgAm-24" value="MainMapDebugModeでは開始時にすでにMainMapSceneは読み込まれており、&lt;br&gt;MapController(Map固有データ)が存在する" style="text;html=1;strokeColor=none;fillColor=none;align=center;verticalAlign=middle;whiteSpace=wrap;rounded=0;" parent="WIyWlLk6GJQsqaUBKTNV-1" vertex="1">
          <mxGeometry x="385" y="30" width="235" height="40" as="geometry" />
        </mxCell>
        <mxCell id="kAOb2uxhxlqk5gWldgAm-25" value="既に読み込まれているMainMapSceneのmapSceneIDを&lt;br&gt;GameManagerのデータロードに渡す" style="text;html=1;align=center;verticalAlign=middle;resizable=0;points=[];autosize=1;strokeColor=none;fillColor=none;" parent="WIyWlLk6GJQsqaUBKTNV-1" vertex="1">
          <mxGeometry x="690" y="30" width="320" height="40" as="geometry" />
        </mxCell>
        <mxCell id="kAOb2uxhxlqk5gWldgAm-37" style="edgeStyle=orthogonalEdgeStyle;rounded=0;orthogonalLoop=1;jettySize=auto;html=1;entryX=0.5;entryY=0;entryDx=0;entryDy=0;shape=link;" parent="WIyWlLk6GJQsqaUBKTNV-1" source="kAOb2uxhxlqk5gWldgAm-29" target="kAOb2uxhxlqk5gWldgAm-32" edge="1">
          <mxGeometry relative="1" as="geometry">
            <Array as="points">
              <mxPoint x="54" y="740" />
              <mxPoint x="80" y="740" />
            </Array>
          </mxGeometry>
        </mxCell>
        <mxCell id="GlKXRZdoemJHXtz8_lh--13" value="Load" style="edgeLabel;html=1;align=center;verticalAlign=middle;resizable=0;points=[];" parent="kAOb2uxhxlqk5gWldgAm-37" vertex="1" connectable="0">
          <mxGeometry x="-0.0915" y="-2" relative="1" as="geometry">
            <mxPoint as="offset" />
          </mxGeometry>
        </mxCell>
        <mxCell id="kAOb2uxhxlqk5gWldgAm-38" style="edgeStyle=orthogonalEdgeStyle;rounded=0;orthogonalLoop=1;jettySize=auto;html=1;shape=link;" parent="WIyWlLk6GJQsqaUBKTNV-1" source="kAOb2uxhxlqk5gWldgAm-29" target="kAOb2uxhxlqk5gWldgAm-35" edge="1">
          <mxGeometry relative="1" as="geometry" />
        </mxCell>
        <mxCell id="GlKXRZdoemJHXtz8_lh--15" value="Setting" style="edgeLabel;html=1;align=center;verticalAlign=middle;resizable=0;points=[];" parent="kAOb2uxhxlqk5gWldgAm-38" vertex="1" connectable="0">
          <mxGeometry x="-0.4678" relative="1" as="geometry">
            <mxPoint as="offset" />
          </mxGeometry>
        </mxCell>
        <mxCell id="kAOb2uxhxlqk5gWldgAm-40" value="" style="edgeStyle=orthogonalEdgeStyle;rounded=0;orthogonalLoop=1;jettySize=auto;html=1;entryX=0;entryY=0.5;entryDx=0;entryDy=0;" parent="WIyWlLk6GJQsqaUBKTNV-1" source="kAOb2uxhxlqk5gWldgAm-32" target="kAOb2uxhxlqk5gWldgAm-39" edge="1">
          <mxGeometry relative="1" as="geometry" />
        </mxCell>
        <mxCell id="CicLNNzfe03j0w4LSddf-2" value="LoadData" style="edgeLabel;html=1;align=center;verticalAlign=middle;resizable=0;points=[];" parent="kAOb2uxhxlqk5gWldgAm-40" vertex="1" connectable="0">
          <mxGeometry x="-0.4607" y="3" relative="1" as="geometry">
            <mxPoint as="offset" />
          </mxGeometry>
        </mxCell>
        <mxCell id="GlKXRZdoemJHXtz8_lh--8" style="edgeStyle=orthogonalEdgeStyle;rounded=0;orthogonalLoop=1;jettySize=auto;html=1;shape=link;" parent="WIyWlLk6GJQsqaUBKTNV-1" source="kAOb2uxhxlqk5gWldgAm-29" target="GlKXRZdoemJHXtz8_lh--7" edge="1">
          <mxGeometry relative="1" as="geometry" />
        </mxCell>
        <mxCell id="GlKXRZdoemJHXtz8_lh--14" value="NewGame" style="edgeLabel;html=1;align=center;verticalAlign=middle;resizable=0;points=[];" parent="GlKXRZdoemJHXtz8_lh--8" vertex="1" connectable="0">
          <mxGeometry x="0.1115" relative="1" as="geometry">
            <mxPoint as="offset" />
          </mxGeometry>
        </mxCell>
        <mxCell id="kAOb2uxhxlqk5gWldgAm-29" value="&lt;b&gt;SceneManager.StartCanvas.Show()&lt;/b&gt;&lt;br&gt;ゲーム開始内容をMainMapのTabletに置く&lt;br&gt;DataSavingControllerと同じような内容&lt;br&gt;PositionはMainMapSceneから候補地点を送られる&lt;br&gt;候補地点はDataのセーブ状況でStartCanvasが判断" style="whiteSpace=wrap;html=1;rounded=1;" parent="WIyWlLk6GJQsqaUBKTNV-1" vertex="1">
          <mxGeometry x="17.5" y="420" width="285" height="120" as="geometry" />
        </mxCell>
        <mxCell id="kAOb2uxhxlqk5gWldgAm-32" value="&lt;b&gt;DataPane&lt;/b&gt;l&lt;br&gt;- OSA" style="whiteSpace=wrap;html=1;rounded=1;" parent="WIyWlLk6GJQsqaUBKTNV-1" vertex="1">
          <mxGeometry x="17.5" y="840" width="120" height="60" as="geometry" />
        </mxCell>
        <mxCell id="kAOb2uxhxlqk5gWldgAm-35" value="&lt;b&gt;GameSettingPanel&lt;/b&gt;&lt;br&gt;- ゲームの設定" style="whiteSpace=wrap;html=1;rounded=1;" parent="WIyWlLk6GJQsqaUBKTNV-1" vertex="1">
          <mxGeometry x="100" y="630" width="120" height="50" as="geometry" />
        </mxCell>
        <mxCell id="kAOb2uxhxlqk5gWldgAm-42" value="" style="edgeStyle=orthogonalEdgeStyle;rounded=0;orthogonalLoop=1;jettySize=auto;html=1;exitX=1;exitY=0.5;exitDx=0;exitDy=0;" parent="WIyWlLk6GJQsqaUBKTNV-1" source="kAOb2uxhxlqk5gWldgAm-39" target="kAOb2uxhxlqk5gWldgAm-44" edge="1">
          <mxGeometry relative="1" as="geometry">
            <mxPoint x="575" y="995" as="targetPoint" />
          </mxGeometry>
        </mxCell>
        <mxCell id="kAOb2uxhxlqk5gWldgAm-39" value="&lt;b&gt;GameManager.LoadData(SaveData)&lt;/b&gt;&lt;br&gt;ここのLoadで読み込まれる内容は&lt;br&gt;&lt;div style=&quot;&quot;&gt;&lt;ol&gt;&lt;li style=&quot;text-align: left;&quot;&gt;DataSavingControllerのData&lt;/li&gt;&lt;li style=&quot;text-align: left;&quot;&gt;MainMapSceneのMapに表示するPrefab&lt;/li&gt;&lt;/ol&gt;&lt;div style=&quot;text-align: left;&quot;&gt;LoadDataが終わったらDataPanel.LoadData内で&lt;/div&gt;&lt;div style=&quot;text-align: left;&quot;&gt;Canvasをdisable&lt;/div&gt;&lt;/div&gt;" style="whiteSpace=wrap;html=1;rounded=1;" parent="WIyWlLk6GJQsqaUBKTNV-1" vertex="1">
          <mxGeometry x="122.5" y="930" width="360" height="130" as="geometry" />
        </mxCell>
        <mxCell id="kAOb2uxhxlqk5gWldgAm-57" value="" style="edgeStyle=orthogonalEdgeStyle;rounded=0;orthogonalLoop=1;jettySize=auto;html=1;shape=link;entryX=0.001;entryY=0.733;entryDx=0;entryDy=0;entryPerimeter=0;" parent="WIyWlLk6GJQsqaUBKTNV-1" source="kAOb2uxhxlqk5gWldgAm-46" target="kAOb2uxhxlqk5gWldgAm-61" edge="1">
          <mxGeometry relative="1" as="geometry" />
        </mxCell>
        <mxCell id="kAOb2uxhxlqk5gWldgAm-43" value="Load Data" style="swimlane;fontStyle=0;childLayout=stackLayout;horizontal=1;startSize=30;horizontalStack=0;resizeParent=1;resizeParentMax=0;resizeLast=0;collapsible=1;marginBottom=0;whiteSpace=wrap;html=1;" parent="WIyWlLk6GJQsqaUBKTNV-1" vertex="1">
          <mxGeometry x="575" y="940" width="350" height="150" as="geometry">
            <mxRectangle x="640" y="1040" width="100" height="30" as="alternateBounds" />
          </mxGeometry>
        </mxCell>
        <mxCell id="kAOb2uxhxlqk5gWldgAm-44" value="&lt;b&gt;MainMapScene.RemoveMap&lt;/b&gt;&lt;br&gt;&amp;nbsp; Mapに置かれている既存のものをすべて削除" style="text;strokeColor=none;fillColor=none;align=left;verticalAlign=middle;spacingLeft=4;spacingRight=4;overflow=hidden;points=[[0,0.5],[1,0.5]];portConstraint=eastwest;rotatable=0;whiteSpace=wrap;html=1;" parent="kAOb2uxhxlqk5gWldgAm-43" vertex="1">
          <mxGeometry y="30" width="350" height="50" as="geometry" />
        </mxCell>
        <mxCell id="kAOb2uxhxlqk5gWldgAm-45" value="&lt;b&gt;GameManager.DataSavingController.Load(data);&lt;/b&gt;&lt;br&gt;&amp;nbsp; セーブデータの読み込み" style="text;strokeColor=none;fillColor=none;align=left;verticalAlign=middle;spacingLeft=4;spacingRight=4;overflow=hidden;points=[[0,0.5],[1,0.5]];portConstraint=eastwest;rotatable=0;whiteSpace=wrap;html=1;" parent="kAOb2uxhxlqk5gWldgAm-43" vertex="1">
          <mxGeometry y="80" width="350" height="30" as="geometry" />
        </mxCell>
        <mxCell id="kAOb2uxhxlqk5gWldgAm-46" value="&lt;b&gt;MainMapScene.LoadMap(string mapAddress);&lt;/b&gt;&lt;br&gt;&amp;nbsp; MainMapTableにmapAddressのPrefabを設置" style="text;strokeColor=none;fillColor=none;align=left;verticalAlign=middle;spacingLeft=4;spacingRight=4;overflow=hidden;points=[[0,0.5],[1,0.5]];portConstraint=eastwest;rotatable=0;whiteSpace=wrap;html=1;" parent="kAOb2uxhxlqk5gWldgAm-43" vertex="1">
          <mxGeometry y="110" width="350" height="40" as="geometry" />
        </mxCell>
        <mxCell id="kAOb2uxhxlqk5gWldgAm-49" style="edgeStyle=orthogonalEdgeStyle;rounded=0;orthogonalLoop=1;jettySize=auto;html=1;exitX=1;exitY=0.5;exitDx=0;exitDy=0;" parent="WIyWlLk6GJQsqaUBKTNV-1" source="kAOb2uxhxlqk5gWldgAm-47" target="kAOb2uxhxlqk5gWldgAm-51" edge="1">
          <mxGeometry relative="1" as="geometry" />
        </mxCell>
        <mxCell id="2o63o8madEZH9zDmj_ld-0" style="edgeStyle=orthogonalEdgeStyle;rounded=0;orthogonalLoop=1;jettySize=auto;html=1;shape=link;exitX=1;exitY=0.5;exitDx=0;exitDy=0;entryX=0;entryY=0.5;entryDx=0;entryDy=0;" parent="WIyWlLk6GJQsqaUBKTNV-1" source="GlKXRZdoemJHXtz8_lh--7" target="2o63o8madEZH9zDmj_ld-1" edge="1">
          <mxGeometry relative="1" as="geometry">
            <mxPoint x="810" y="530" as="targetPoint" />
          </mxGeometry>
        </mxCell>
        <mxCell id="kAOb2uxhxlqk5gWldgAm-47" value="&lt;b&gt;GameManager.StartNewData(mapAddress);&lt;/b&gt;&lt;br&gt;&lt;font style=&quot;font-size: 10px;&quot;&gt;LoadDataがおったらDataPanel.StartNewData内で&lt;br&gt;CanvasをDisable&lt;/font&gt;" style="whiteSpace=wrap;html=1;rounded=1;" parent="WIyWlLk6GJQsqaUBKTNV-1" vertex="1">
          <mxGeometry x="340" y="785" width="340" height="60" as="geometry" />
        </mxCell>
        <mxCell id="kAOb2uxhxlqk5gWldgAm-50" value="Start New Data" style="swimlane;fontStyle=0;childLayout=stackLayout;horizontal=1;startSize=30;horizontalStack=0;resizeParent=1;resizeParentMax=0;resizeLast=0;collapsible=1;marginBottom=0;whiteSpace=wrap;html=1;" parent="WIyWlLk6GJQsqaUBKTNV-1" vertex="1">
          <mxGeometry x="865" y="760" width="350" height="150" as="geometry" />
        </mxCell>
        <mxCell id="kAOb2uxhxlqk5gWldgAm-51" value="&lt;b&gt;MainMapScene.RemoveMap&lt;/b&gt;&lt;br&gt;&amp;nbsp; Mapに置かれている既存のものをすべて削除" style="text;strokeColor=none;fillColor=none;align=left;verticalAlign=middle;spacingLeft=4;spacingRight=4;overflow=hidden;points=[[0,0.5],[1,0.5]];portConstraint=eastwest;rotatable=0;whiteSpace=wrap;html=1;" parent="kAOb2uxhxlqk5gWldgAm-50" vertex="1">
          <mxGeometry y="30" width="350" height="50" as="geometry" />
        </mxCell>
        <mxCell id="kAOb2uxhxlqk5gWldgAm-52" value="&lt;b style=&quot;text-align: center;&quot;&gt;GameManager.StartNewData(string gameSceneName)&lt;/b&gt;&lt;b&gt;;&lt;/b&gt;&lt;br&gt;&amp;nbsp; セーブデータの読み込み" style="text;strokeColor=none;fillColor=none;align=left;verticalAlign=middle;spacingLeft=4;spacingRight=4;overflow=hidden;points=[[0,0.5],[1,0.5]];portConstraint=eastwest;rotatable=0;whiteSpace=wrap;html=1;" parent="kAOb2uxhxlqk5gWldgAm-50" vertex="1">
          <mxGeometry y="80" width="350" height="30" as="geometry" />
        </mxCell>
        <mxCell id="kAOb2uxhxlqk5gWldgAm-53" value="&lt;b&gt;MainMapScene.LoadMap(string mapAddress);&lt;/b&gt;&lt;br&gt;&amp;nbsp; MainMapTableにmapAddressのPrefabを設置" style="text;strokeColor=none;fillColor=none;align=left;verticalAlign=middle;spacingLeft=4;spacingRight=4;overflow=hidden;points=[[0,0.5],[1,0.5]];portConstraint=eastwest;rotatable=0;whiteSpace=wrap;html=1;" parent="kAOb2uxhxlqk5gWldgAm-50" vertex="1">
          <mxGeometry y="110" width="350" height="40" as="geometry" />
        </mxCell>
        <mxCell id="kAOb2uxhxlqk5gWldgAm-59" style="edgeStyle=orthogonalEdgeStyle;rounded=0;orthogonalLoop=1;jettySize=auto;html=1;shape=link;exitX=0;exitY=0.5;exitDx=0;exitDy=0;" parent="WIyWlLk6GJQsqaUBKTNV-1" source="kAOb2uxhxlqk5gWldgAm-61" target="kAOb2uxhxlqk5gWldgAm-53" edge="1">
          <mxGeometry relative="1" as="geometry" />
        </mxCell>
        <mxCell id="kAOb2uxhxlqk5gWldgAm-60" value="MainMapScene.Loadmap(String mapAddress);" style="swimlane;fontStyle=0;childLayout=stackLayout;horizontal=1;startSize=30;horizontalStack=0;resizeParent=1;resizeParentMax=0;resizeLast=0;collapsible=1;marginBottom=0;whiteSpace=wrap;html=1;" parent="WIyWlLk6GJQsqaUBKTNV-1" vertex="1">
          <mxGeometry x="1255" y="1060" width="470" height="120" as="geometry" />
        </mxCell>
        <mxCell id="kAOb2uxhxlqk5gWldgAm-61" value="AddressableでPrefabを読み込み" style="text;strokeColor=none;fillColor=none;align=left;verticalAlign=middle;spacingLeft=4;spacingRight=4;overflow=hidden;points=[[0,0.5],[1,0.5]];portConstraint=eastwest;rotatable=0;whiteSpace=wrap;html=1;" parent="kAOb2uxhxlqk5gWldgAm-60" vertex="1">
          <mxGeometry y="30" width="470" height="30" as="geometry" />
        </mxCell>
        <mxCell id="kAOb2uxhxlqk5gWldgAm-62" value="LoadDataでMainMapController.LoadDataでデータをMainMapControllerに適用" style="text;strokeColor=none;fillColor=none;align=left;verticalAlign=middle;spacingLeft=4;spacingRight=4;overflow=hidden;points=[[0,0.5],[1,0.5]];portConstraint=eastwest;rotatable=0;whiteSpace=wrap;html=1;" parent="kAOb2uxhxlqk5gWldgAm-60" vertex="1">
          <mxGeometry y="60" width="470" height="30" as="geometry" />
        </mxCell>
        <mxCell id="wTOAdwldVeE5NGGKSXYe-1" value="Squadの設置位置がエンカウントする場所にある場合はエンカウントチェック" style="text;strokeColor=none;fillColor=none;align=left;verticalAlign=middle;spacingLeft=4;spacingRight=4;overflow=hidden;points=[[0,0.5],[1,0.5]];portConstraint=eastwest;rotatable=0;whiteSpace=wrap;html=1;" parent="kAOb2uxhxlqk5gWldgAm-60" vertex="1">
          <mxGeometry y="90" width="470" height="30" as="geometry" />
        </mxCell>
        <mxCell id="kAOb2uxhxlqk5gWldgAm-68" value="&lt;pre style=&quot;border: 1px solid var(--cib-color-stroke-neutral-primary); background: var(--cib-color-syntax-background-surface); margin-top: 0px; margin-bottom: 4px; padding: 10px; box-sizing: border-box; border-radius: var(--cib-border-radius-large); color: rgb(210, 208, 206); font-size: 14px;&quot;&gt;&lt;p style=&quot;border: 1px solid var(--cib-color-stroke-neutral-primary); margin-top: 0px; margin-bottom: 4px; padding: 10px; box-sizing: border-box; background: var(--cib-color-syntax-background-surface); border-radius: var(--cib-border-radius-large);&quot;&gt;&lt;code style=&quot;font-size: var(--cib-type-body1-font-size); line-height: var(--cib-type-body1-line-height); font-weight: var(--cib-type-body1-font-weight); font-variation-settings: var(--cib-type-body1-font-variation-settings);&quot; class=&quot;language-csharp&quot;&gt;AsyncOperationHandle&amp;lt;GameObject&amp;gt; handle = Addressables.LoadAssetAsync&amp;lt;GameObject&amp;gt;(_prefabReference);&lt;br&gt;&lt;/code&gt;&lt;code style=&quot;font-size: var(--cib-type-body1-font-size); line-height: var(--cib-type-body1-line-height); font-weight: var(--cib-type-body1-font-weight); font-variation-settings: var(--cib-type-body1-font-variation-settings);&quot; class=&quot;language-csharp&quot;&gt;await handle.Task;&lt;br&gt;&lt;/code&gt;Instantiate(handle.Result, transform.position, Quaternion.identity);&lt;/p&gt;&lt;/pre&gt;" style="text;html=1;strokeColor=none;fillColor=none;align=left;verticalAlign=middle;whiteSpace=wrap;rounded=0;" parent="WIyWlLk6GJQsqaUBKTNV-1" vertex="1">
          <mxGeometry x="1270" y="890" width="750" height="70" as="geometry" />
        </mxCell>
        <mxCell id="5-Z6bzct20eR7TX8dzta-9" value="" style="edgeStyle=orthogonalEdgeStyle;rounded=0;orthogonalLoop=1;jettySize=auto;html=1;" parent="WIyWlLk6GJQsqaUBKTNV-1" source="5-Z6bzct20eR7TX8dzta-2" target="5-Z6bzct20eR7TX8dzta-8" edge="1">
          <mxGeometry relative="1" as="geometry" />
        </mxCell>
        <mxCell id="5-Z6bzct20eR7TX8dzta-2" value="MapへDataをLoadする&lt;br&gt;MainMapScene.mapSceneID = MainMapController.mapSceneID" style="rounded=1;whiteSpace=wrap;html=1;align=center;" parent="WIyWlLk6GJQsqaUBKTNV-1" vertex="1">
          <mxGeometry x="385" y="275" width="210" height="50" as="geometry" />
        </mxCell>
        <mxCell id="5-Z6bzct20eR7TX8dzta-8" value="&lt;b&gt;&lt;font style=&quot;font-size: 12px;&quot;&gt;gameManager.LoadDebugData(mapSceneID);&lt;/font&gt;&lt;/b&gt;&lt;br&gt;&lt;font style=&quot;font-size: 10px;&quot;&gt;あらかじめ設置されている&lt;br&gt;&amp;nbsp;MainMapScene.mapSceneID&lt;br&gt;から存在するDataの中で最新Dataを取得&lt;br&gt;取得するだけで設定しない&lt;br&gt;&lt;/font&gt;" style="whiteSpace=wrap;html=1;rounded=1;" parent="WIyWlLk6GJQsqaUBKTNV-1" vertex="1">
          <mxGeometry x="640" y="255" width="280" height="90" as="geometry" />
        </mxCell>
        <mxCell id="5-Z6bzct20eR7TX8dzta-10" value="Debug" style="text;html=1;align=center;verticalAlign=middle;resizable=0;points=[];autosize=1;strokeColor=none;fillColor=none;" parent="WIyWlLk6GJQsqaUBKTNV-1" vertex="1">
          <mxGeometry x="280" y="270" width="60" height="30" as="geometry" />
        </mxCell>
        <mxCell id="GlKXRZdoemJHXtz8_lh--10" style="edgeStyle=orthogonalEdgeStyle;rounded=0;orthogonalLoop=1;jettySize=auto;html=1;" parent="WIyWlLk6GJQsqaUBKTNV-1" source="GlKXRZdoemJHXtz8_lh--7" target="kAOb2uxhxlqk5gWldgAm-47" edge="1">
          <mxGeometry relative="1" as="geometry" />
        </mxCell>
        <mxCell id="GlKXRZdoemJHXtz8_lh--11" value="StartNewGame" style="edgeLabel;html=1;align=center;verticalAlign=middle;resizable=0;points=[];" parent="GlKXRZdoemJHXtz8_lh--10" vertex="1" connectable="0">
          <mxGeometry x="-0.0227" relative="1" as="geometry">
            <mxPoint as="offset" />
          </mxGeometry>
        </mxCell>
        <mxCell id="GlKXRZdoemJHXtz8_lh--7" value="&lt;b&gt;StartCanvas.ShowMapSelection&lt;/b&gt;&lt;br&gt;NewGame時に開始するマップを選択&lt;br&gt;OSAするまでもないためVerticalでlist表示" style="rounded=1;whiteSpace=wrap;html=1;" parent="WIyWlLk6GJQsqaUBKTNV-1" vertex="1">
          <mxGeometry x="400" y="550" width="220" height="80" as="geometry" />
        </mxCell>
        <mxCell id="2o63o8madEZH9zDmj_ld-1" value="&lt;h2&gt;どのようなMapを選べるか&amp;nbsp; MapData.asset&lt;/h2&gt;&lt;div&gt;assetタイプのdataでMapの種類を保持&lt;/div&gt;&lt;div&gt;保持内容&lt;/div&gt;&lt;div&gt;- MapID&amp;nbsp;&lt;/div&gt;&lt;div&gt;MapのaddressableID DataDirectory&lt;/div&gt;&lt;div&gt;- MapName&lt;/div&gt;&lt;div&gt;- MapDescription&lt;/div&gt;&lt;div&gt;- MapSprite&lt;/div&gt;&lt;div&gt;Mapのイメージ画像&lt;/div&gt;&lt;div&gt;&amp;nbsp;&lt;/div&gt;" style="rounded=0;whiteSpace=wrap;html=1;align=left;" parent="WIyWlLk6GJQsqaUBKTNV-1" vertex="1">
          <mxGeometry x="740" y="501.25" width="410" height="177.5" as="geometry" />
        </mxCell>
        <mxCell id="Nfcoc8AcT7kyBA4Ys-oC-1" value="Loadと表示Scene" style="swimlane;fontStyle=0;childLayout=stackLayout;horizontal=1;startSize=30;horizontalStack=0;resizeParent=1;resizeParentMax=0;resizeLast=0;collapsible=1;marginBottom=0;whiteSpace=wrap;html=1;" vertex="1" parent="WIyWlLk6GJQsqaUBKTNV-1">
          <mxGeometry x="1160" y="1280" width="140" height="210" as="geometry" />
        </mxCell>
        <mxCell id="Nfcoc8AcT7kyBA4Ys-oC-2" value="StartScene 2 MainMap" style="text;strokeColor=none;fillColor=none;align=left;verticalAlign=middle;spacingLeft=4;spacingRight=4;overflow=hidden;points=[[0,0.5],[1,0.5]];portConstraint=eastwest;rotatable=0;whiteSpace=wrap;html=1;" vertex="1" parent="Nfcoc8AcT7kyBA4Ys-oC-1">
          <mxGeometry y="30" width="140" height="30" as="geometry" />
        </mxCell>
        <mxCell id="Nfcoc8AcT7kyBA4Ys-oC-3" value="MainMap 2 MainMap" style="text;strokeColor=none;fillColor=none;align=left;verticalAlign=middle;spacingLeft=4;spacingRight=4;overflow=hidden;points=[[0,0.5],[1,0.5]];portConstraint=eastwest;rotatable=0;whiteSpace=wrap;html=1;" vertex="1" parent="Nfcoc8AcT7kyBA4Ys-oC-1">
          <mxGeometry y="60" width="140" height="30" as="geometry" />
        </mxCell>
        <mxCell id="Nfcoc8AcT7kyBA4Ys-oC-4" value="StartScene 2 Tactics" style="text;strokeColor=none;fillColor=none;align=left;verticalAlign=middle;spacingLeft=4;spacingRight=4;overflow=hidden;points=[[0,0.5],[1,0.5]];portConstraint=eastwest;rotatable=0;whiteSpace=wrap;html=1;" vertex="1" parent="Nfcoc8AcT7kyBA4Ys-oC-1">
          <mxGeometry y="90" width="140" height="30" as="geometry" />
        </mxCell>
        <mxCell id="Nfcoc8AcT7kyBA4Ys-oC-5" value="MainMap 2 Tactics" style="text;strokeColor=none;fillColor=none;align=left;verticalAlign=middle;spacingLeft=4;spacingRight=4;overflow=hidden;points=[[0,0.5],[1,0.5]];portConstraint=eastwest;rotatable=0;whiteSpace=wrap;html=1;" vertex="1" parent="Nfcoc8AcT7kyBA4Ys-oC-1">
          <mxGeometry y="120" width="140" height="30" as="geometry" />
        </mxCell>
        <mxCell id="Nfcoc8AcT7kyBA4Ys-oC-6" value="Tactics 2 MainMap" style="text;strokeColor=none;fillColor=none;align=left;verticalAlign=middle;spacingLeft=4;spacingRight=4;overflow=hidden;points=[[0,0.5],[1,0.5]];portConstraint=eastwest;rotatable=0;whiteSpace=wrap;html=1;" vertex="1" parent="Nfcoc8AcT7kyBA4Ys-oC-1">
          <mxGeometry y="150" width="140" height="30" as="geometry" />
        </mxCell>
        <mxCell id="Nfcoc8AcT7kyBA4Ys-oC-18" value="Tactics 2 Tactics" style="text;strokeColor=none;fillColor=none;align=left;verticalAlign=middle;spacingLeft=4;spacingRight=4;overflow=hidden;points=[[0,0.5],[1,0.5]];portConstraint=eastwest;rotatable=0;whiteSpace=wrap;html=1;" vertex="1" parent="Nfcoc8AcT7kyBA4Ys-oC-1">
          <mxGeometry y="180" width="140" height="30" as="geometry" />
        </mxCell>
        <mxCell id="Nfcoc8AcT7kyBA4Ys-oC-8" style="edgeStyle=orthogonalEdgeStyle;rounded=0;orthogonalLoop=1;jettySize=auto;html=1;entryX=0.5;entryY=0;entryDx=0;entryDy=0;" edge="1" parent="WIyWlLk6GJQsqaUBKTNV-1" source="wTOAdwldVeE5NGGKSXYe-1" target="Nfcoc8AcT7kyBA4Ys-oC-1">
          <mxGeometry relative="1" as="geometry">
            <mxPoint x="1630" y="1270" as="targetPoint" />
          </mxGeometry>
        </mxCell>
        <mxCell id="Nfcoc8AcT7kyBA4Ys-oC-13" value="通常のShowMainMap" style="rounded=1;whiteSpace=wrap;html=1;" vertex="1" parent="WIyWlLk6GJQsqaUBKTNV-1">
          <mxGeometry x="1400" y="1295" width="160" height="60" as="geometry" />
        </mxCell>
        <mxCell id="Nfcoc8AcT7kyBA4Ys-oC-12" style="edgeStyle=orthogonalEdgeStyle;rounded=0;orthogonalLoop=1;jettySize=auto;html=1;entryX=0;entryY=0.5;entryDx=0;entryDy=0;" edge="1" parent="WIyWlLk6GJQsqaUBKTNV-1" source="Nfcoc8AcT7kyBA4Ys-oC-2" target="Nfcoc8AcT7kyBA4Ys-oC-13">
          <mxGeometry relative="1" as="geometry">
            <mxPoint x="1450" y="1325" as="targetPoint" />
          </mxGeometry>
        </mxCell>
        <mxCell id="Nfcoc8AcT7kyBA4Ys-oC-14" style="edgeStyle=orthogonalEdgeStyle;rounded=0;orthogonalLoop=1;jettySize=auto;html=1;exitX=1;exitY=0.5;exitDx=0;exitDy=0;entryX=0;entryY=0.5;entryDx=0;entryDy=0;" edge="1" parent="WIyWlLk6GJQsqaUBKTNV-1" source="Nfcoc8AcT7kyBA4Ys-oC-3" target="Nfcoc8AcT7kyBA4Ys-oC-13">
          <mxGeometry relative="1" as="geometry" />
        </mxCell>
        <mxCell id="Nfcoc8AcT7kyBA4Ys-oC-16" value="MainMapScene.TransitToTacticsScene&lt;br&gt;でMainMapを隠してTacticsシーンに移行" style="rounded=1;whiteSpace=wrap;html=1;" vertex="1" parent="WIyWlLk6GJQsqaUBKTNV-1">
          <mxGeometry x="1400" y="1355" width="270" height="60" as="geometry" />
        </mxCell>
        <mxCell id="Nfcoc8AcT7kyBA4Ys-oC-15" style="edgeStyle=orthogonalEdgeStyle;rounded=0;orthogonalLoop=1;jettySize=auto;html=1;exitX=1;exitY=0.5;exitDx=0;exitDy=0;entryX=0;entryY=0.5;entryDx=0;entryDy=0;" edge="1" parent="WIyWlLk6GJQsqaUBKTNV-1" source="Nfcoc8AcT7kyBA4Ys-oC-4" target="Nfcoc8AcT7kyBA4Ys-oC-16">
          <mxGeometry relative="1" as="geometry">
            <mxPoint x="1410" y="1384.666666666667" as="targetPoint" />
          </mxGeometry>
        </mxCell>
        <mxCell id="Nfcoc8AcT7kyBA4Ys-oC-17" style="edgeStyle=orthogonalEdgeStyle;rounded=0;orthogonalLoop=1;jettySize=auto;html=1;exitX=1;exitY=0.5;exitDx=0;exitDy=0;entryX=0;entryY=0.5;entryDx=0;entryDy=0;" edge="1" parent="WIyWlLk6GJQsqaUBKTNV-1" source="Nfcoc8AcT7kyBA4Ys-oC-5" target="Nfcoc8AcT7kyBA4Ys-oC-16">
          <mxGeometry relative="1" as="geometry" />
        </mxCell>
        <mxCell id="Nfcoc8AcT7kyBA4Ys-oC-20" value="&lt;h3&gt;GameManager.ReloadTacticsScene&lt;/h3&gt;&lt;div&gt;現在表示中のTacticsをReloadする&lt;/div&gt;&lt;div&gt;この一連の流れはGameManagerとTacticsのみのやり取りでMainMapSceneを介さない&lt;br&gt;&lt;/div&gt;" style="rounded=1;whiteSpace=wrap;html=1;" vertex="1" parent="WIyWlLk6GJQsqaUBKTNV-1">
          <mxGeometry x="1360" y="1480" width="300" height="110" as="geometry" />
        </mxCell>
        <mxCell id="Nfcoc8AcT7kyBA4Ys-oC-21" style="edgeStyle=orthogonalEdgeStyle;rounded=0;orthogonalLoop=1;jettySize=auto;html=1;entryX=0;entryY=0.5;entryDx=0;entryDy=0;" edge="1" parent="WIyWlLk6GJQsqaUBKTNV-1" source="Nfcoc8AcT7kyBA4Ys-oC-18" target="Nfcoc8AcT7kyBA4Ys-oC-20">
          <mxGeometry relative="1" as="geometry" />
        </mxCell>
      </root>
    </mxGraphModel>
  </diagram>
</mxfile>
